HIERARCHY
ROOT SimulationBone
{
	OFFSET 0.000000 0.000000 0.000000
	CHANNELS 6 Xposition Yposition Zposition Zrotation Yrotation Xrotation 
	JOINT Hips
	{
		OFFSET 0.000000 0.000000 0.000000
		CHANNELS 6 Xposition Yposition Zposition Zrotation Yrotation Xrotation 
		JOINT RightUpLeg
		{
			OFFSET 0.103458 1.857831 10.548505
			CHANNELS 3 Zrotation Yrotation Xrotation
			JOINT RightLeg
			{
				OFFSET 43.500000 -0.000031 0.000002
				CHANNELS 3 Zrotation Yrotation Xrotation
				JOINT RightFoot
				{
					OFFSET 42.372200 0.000023 0.000003
					CHANNELS 3 Zrotation Yrotation Xrotation
					JOINT RightToe
					{
						OFFSET 17.299997 -0.000001 -0.000010
						CHANNELS 3 Zrotation Yrotation Xrotation
						End Site
						{
							OFFSET 0.000000 0.000000 0.000000
						}
					}
				}
			}
		}
		JOINT LeftUpLeg
		{
			OFFSET 0.103457 1.857828 -10.548510
			CHANNELS 3 Zrotation Yrotation Xrotation
			JOINT LeftLeg
			{
				OFFSET 43.500046 -0.000015 0.000002
				CHANNELS 3 Zrotation Yrotation Xrotation
				JOINT LeftFoot
				{
					OFFSET 42.372261 -0.000008 0.000023
					CHANNELS 3 Zrotation Yrotation Xrotation
					JOINT LeftToe
					{
						OFFSET 17.299990 -0.000007 -0.000002
						CHANNELS 3 Zrotation Yrotation Xrotation
						End Site
						{
							OFFSET 0.000000 0.000000 0.000000
						}
					}
				}
			}
		}
		JOINT Spine
		{
			OFFSET 6.901967 -2.603726 -0.000001
			CHANNELS 3 Zrotation Yrotation Xrotation
			JOINT Spine1
			{
				OFFSET 12.588100 -0.000009 -0.000003
				CHANNELS 3 Zrotation Yrotation Xrotation
				JOINT Spine2
				{
					OFFSET 12.343202 0.000008 0.000008
					CHANNELS 3 Zrotation Yrotation Xrotation
					JOINT Neck
					{
						OFFSET 25.832897 -0.000015 -0.000004
						CHANNELS 3 Zrotation Yrotation Xrotation
						JOINT Head
						{
							OFFSET 11.766609 0.000013 -0.000006
							CHANNELS 3 Zrotation Yrotation Xrotation
							End Site
							{
								OFFSET 0.000000 0.000000 0.000000
							}
						}
					}
					JOINT RightShoulder
					{
						OFFSET 19.745911 -1.480373 6.000098
						CHANNELS 3 Zrotation Yrotation Xrotation
						JOINT RightArm
						{
							OFFSET 11.284123 -0.000007 -0.000032
							CHANNELS 3 Zrotation Yrotation Xrotation
							JOINT RightForeArm
							{
								OFFSET 33.000050 0.000005 0.000031
								CHANNELS 3 Zrotation Yrotation Xrotation
								JOINT RightHand
								{
									OFFSET 25.200008 0.000017 0.000013
									CHANNELS 3 Zrotation Yrotation Xrotation
									End Site
									{
										OFFSET 0.000000 0.000000 0.000000
									}
								}
							}
						}
					}
					JOINT LeftShoulder
					{
						OFFSET 19.746092 -1.480379 -6.000077
						CHANNELS 3 Zrotation Yrotation Xrotation
						JOINT LeftArm
						{
							OFFSET 11.284136 -0.000017 -0.000017
							CHANNELS 3 Zrotation Yrotation Xrotation
							JOINT LeftForeArm
							{
								OFFSET 33.000099 0.000019 0.000015
								CHANNELS 3 Zrotation Yrotation Xrotation
								JOINT LeftHand
								{
									OFFSET 25.199780 0.000140 0.000408
									CHANNELS 3 Zrotation Yrotation Xrotation
									End Site
									{
										OFFSET 0.000000 0.000000 0.000000
									}
								}
							}
						}
					}
				}
			}
		}
	}
}
MOTION
Frames: 10
Frame Time: 0.016667
-246.001826 0.000000 23.316325 0.000000 -59.176617 0.000000 0.399565 87.078056 1.741140 94.955838 3.413874 178.186599 -174.920175 5.725693 -169.910450 -36.692151 -4.644851 0.022154 84.170176 3.073475 13.939592 21.454563 0.003118 0.000016 158.566188 -0.221901 175.121201 -13.358485 3.644543 -4.597102 64.988436 5.590287 5.936695 21.454553 -0.003093 0.000000 8.288266 0.515799 -0.767589 6.556919 1.074149 -1.504887 6.238890 1.064899 -1.511346 10.955003 7.334705 6.372036 -4.442833 -8.011516 9.095665 -172.461907 -73.580647 -9.142597 -4.533537 55.507330 33.300303 -69.915714 -16.045375 2.596492 -3.297142 -10.499967 27.845244 -167.183113 76.534150 14.589286 -17.814755 -53.320853 -31.065004 -45.872748 14.458967 -1.586558 5.619127 3.768834 -18.499569 
-245.382788 0.000000 24.882952 0.000000 -57.198908 0.000000 0.495174 86.943168 1.605441 95.225430 3.906976 177.689896 -175.286226 5.269337 -170.927356 -40.063421 -4.112597 0.884276 81.985729 2.786170 14.158124 21.454563 0.003121 0.000019 158.668184 -1.002370 174.718031 -15.971994 2.759349 -4.298670 63.460229 5.491208 5.975611 21.454554 -0.003097 -0.000001 8.340591 0.684136 -0.711591 6.660299 1.408003 -1.382842 6.342197 1.399490 -1.391320 10.743090 6.623630 6.233611 -4.213130 -7.901099 8.862968 -172.493389 -73.533505 -9.110041 -5.571379 56.162101 32.978532 -67.535538 -16.727733 2.545477 -2.879206 -11.010719 26.741571 -167.062232 77.017639 14.711128 -17.883297 -53.587925 -33.718837 -40.805292 13.956747 -1.447268 6.832245 3.098169 -13.949469 
-244.720901 0.000000 26.427355 0.000000 -55.303474 0.000000 0.538416 86.622566 1.518860 95.378947 4.600227 177.741834 -176.932007 4.458894 -172.484488 -45.461349 -3.354427 2.140078 79.338425 2.276546 14.226449 21.454560 0.003115 0.000020 158.373317 -1.624995 173.341213 -19.188380 2.804199 -2.779078 63.106589 4.565371 6.363618 21.454553 -0.003098 -0.000001 8.370064 0.942943 -0.694040 6.717016 1.924486 -1.332529 6.398823 1.916268 -1.344126 10.545982 5.801725 6.032291 -4.056540 -7.663658 8.529280 -172.915296 -73.415951 -8.676517 -6.769664 56.980633 32.245377 -64.976784 -17.523258 2.497494 -2.150145 -10.659869 25.955966 -167.276017 77.004019 14.492996 -17.674804 -53.592613 -34.819023 -36.051189 12.850061 -1.219890 8.179006 2.193909 -10.798563 
-244.016579 0.000000 27.949442 0.000000 -53.494802 0.000000 0.569450 86.261983 1.467178 95.494532 5.284616 178.210480 -179.404295 3.529265 -174.177776 -51.992046 -2.407723 3.207250 76.000592 1.651944 13.203277 21.454557 0.003107 0.000020 158.015446 -1.987098 171.995499 -22.632483 3.380295 -0.896671 63.787765 3.259674 6.705328 21.454551 -0.003098 -0.000000 8.395594 1.228473 -0.702101 6.765429 2.495784 -1.331714 6.447115 2.487559 -1.346763 10.345686 5.001747 5.759904 -4.010677 -7.338875 8.109958 -173.642473 -73.295293 -7.929544 -8.155731 57.917214 31.183693 -62.175190 -18.369780 2.444798 -1.202822 -9.954546 25.111158 -168.034042 76.770317 13.719867 -17.044666 -53.547579 -35.099731 -31.777154 11.582173 -1.028028 9.454224 1.139242 -9.402266 
-243.270234 0.000000 29.449119 0.000000 -51.775932 0.000000 0.630043 86.007149 1.441840 95.659595 5.757848 178.963628 177.723817 2.758490 -175.630856 -58.778080 -1.461986 3.542345 71.743514 0.867908 10.144004 21.454557 0.003104 0.000020 157.908482 -1.964500 171.679482 -25.941961 3.981746 0.536244 65.382804 2.025918 6.592990 21.454551 -0.003099 0.000000 8.436154 1.476951 -0.722847 6.844031 2.993948 -1.357781 6.525576 2.985556 -1.375846 10.123215 4.356274 5.407732 -4.112754 -6.967443 7.619316 -174.600590 -73.238236 -6.945825 -9.753945 58.927107 29.878761 -59.066061 -19.205252 2.383167 -0.117952 -9.392609 23.816065 -169.532903 76.588060 12.189696 -15.828691 -53.666324 -35.312261 -28.132372 10.610729 -0.911938 10.481816 0.043932 -10.108497 
-242.482280 0.000000 30.926294 0.000000 -50.148567 0.000000 0.741972 85.960885 1.441415 95.931242 5.892124 179.862509 174.785575 2.371799 -176.693297 -65.080085 -0.728207 2.804242 66.814862 -0.195942 4.855238 21.454561 0.003108 0.000019 158.298391 -1.503539 172.974012 -28.807633 4.179376 1.029509 67.691488 1.226546 5.831548 21.454552 -0.003103 0.000000 8.503542 1.640825 -0.739721 6.977135 3.323144 -1.379969 6.658555 3.314614 -1.400036 9.870908 3.965945 4.979204 -4.353363 -6.565285 7.071649 -175.652157 -73.271904 -5.866993 -11.594045 59.945836 28.409978 -55.618570 -19.958198 2.309267 1.065485 -9.318154 21.778623 -171.773004 76.609306 9.902469 -13.966204 -54.027627 -36.122529 -25.331061 10.248528 -0.851315 11.140819 -0.875574 -13.164189 
-241.653130 0.000000 32.380874 0.000000 -48.613204 0.000000 0.843041 86.054359 1.472465 96.232812 5.842980 -179.256306 171.845388 2.161500 -177.958666 -70.575292 0.029856 1.178749 63.256908 -0.832931 0.132480 21.454562 0.003113 0.000018 159.131195 -0.856902 174.787382 -30.983861 4.247687 1.141282 70.117116 0.734751 5.005560 21.454553 -0.003103 -0.000000 8.580335 1.737392 -0.721982 7.130658 3.515864 -1.336362 6.811990 3.507595 -1.357603 9.632162 3.805298 4.528811 -4.539699 -6.044054 6.485083 -176.327508 -73.268023 -5.173914 -13.738615 60.824110 26.824616 -51.938516 -20.518414 2.214717 2.418332 -9.507728 19.180855 -173.624801 76.560105 8.011413 -11.900305 -54.209328 -37.754812 -23.890781 10.211951 -0.817931 11.420672 -0.982619 -18.450019 
-240.783199 0.000000 33.812766 0.000000 -47.169287 0.000000 0.869084 86.202942 1.530506 96.457589 5.783947 -178.537106 168.919478 1.834526 -179.950149 -75.062377 1.079120 -1.025784 62.716427 0.072660 -1.515264 21.454553 0.003111 0.000017 160.254080 -0.273571 176.032338 -32.298613 4.509012 1.436669 72.094220 0.323785 4.680291 21.454551 -0.003095 -0.000000 8.641570 1.791725 -0.647213 7.255205 3.620418 -1.181598 6.936493 3.613076 -1.203471 9.477760 3.823642 4.105318 -4.509525 -5.350272 5.883064 -176.259837 -73.119536 -5.241633 -16.093738 61.441085 25.223934 -48.195982 -20.797596 2.106683 3.970877 -9.685804 16.267197 -174.026043 76.216064 7.599000 -10.178787 -53.876999 -40.117623 -24.098469 10.157957 -0.815115 11.212821 0.202366 -25.135297 
-239.872898 0.000000 35.221877 0.000000 -45.815360 0.000000 0.834510 86.430458 1.585753 96.528059 5.677966 -178.025217 166.026340 1.434910 177.717861 -78.421308 2.087000 -3.256473 64.288772 1.838850 -1.151742 21.454545 0.003108 0.000017 161.542990 0.227295 177.324661 -32.862795 4.520989 1.618256 73.614808 0.102966 4.595325 21.454550 -0.003085 0.000000 8.661259 1.795499 -0.540320 7.297972 3.621429 -0.967005 6.979252 3.615380 -0.988883 9.536448 3.991932 3.683333 -4.396722 -4.689335 5.294944 -175.910798 -72.938473 -5.597902 -18.018385 61.885043 23.845110 -44.665212 -20.835980 2.000355 5.558758 -9.928990 13.002313 -173.883994 75.839199 7.741223 -8.906045 -53.529413 -42.668556 -24.975721 10.102960 -0.827001 10.562409 2.262079 -29.769580 
-238.922641 0.000000 36.608115 0.000000 -44.549217 0.000000 0.770248 86.773189 1.611105 96.404744 5.458486 -177.727789 163.172146 1.088534 175.558145 -80.571423 2.704331 -4.938396 66.565311 3.309177 -0.476350 21.454544 0.003108 0.000016 162.930574 0.654055 179.312726 -32.822778 3.896081 1.372805 74.795317 0.191188 4.407035 21.454551 -0.003081 0.000000 8.623375 1.738992 -0.431922 7.225703 3.501492 -0.754978 6.906999 3.496732 -0.776136 9.896067 4.256837 3.247784 -4.362995 -4.235610 4.747033 -175.761524 -72.849845 -5.750226 -18.909698 62.274694 22.907199 -41.612234 -20.686035 1.902029 7.012753 -10.339311 9.403873 -174.136590 75.739168 7.482222 -8.014052 -53.732779 -44.884149 -25.517595 10.131797 -0.837650 9.936939 4.622940 -29.335791 
